<svg version="1.1" baseProfile="tiny" id="Layer_1" xmlns="http://www.w3.org/2000/svg" xmlns:xlink="http://www.w3.org/1999/xlink"
	 x="0px" y="0px" viewBox="0 0 396 266" overflow="visible" xml:space="preserve">
<g>
	<path fill="#69706C" d="M199.8,75.5c-66.6,0-133.1,0-199.7,0c0-25.3,0-50.6,0-75.8c66.7,0,133.4,0,200.2,0c1,1,1.1,2.3,1.1,3.6
		c0,23,0,45.9,0,68.9C201.4,73.6,201.4,74.9,199.8,75.5z"/>
	<path fill="#69706C" d="M321-0.3c24.9,0,49.8,0,74.6,0c0,25.3,0,50.6,0,75.8c-24.7,0-49.4,0-74.2,0c-1.3-0.5-1.4-1.6-1.4-2.8
		c0-23.1,0-46.2,0-69.3C320.1,2.1,320,0.8,321-0.3z"/>
	<path fill="#69706C" d="M297,75.5c-24.2,0-48.3,0-72.5,0c-1.3-0.5-1.4-1.6-1.4-2.8c0-23.1,0-46.2,0-69.3c0-1.3-0.1-2.6,0.9-3.7
		c24.5,0,49,0,73.4,0c1,1,1.1,2.3,1.1,3.6c0,23,0,45.9,0,68.9C298.6,73.6,298.6,74.9,297,75.5z"/>
</g>
<g>
	<path fill="#69706C" d="M199.8,170.6c-66.6,0-133.1,0-199.7,0c0-25.3,0-50.6,0-75.8c66.7,0,133.4,0,200.2,0c1,1,1.1,2.3,1.1,3.6
		c0,23,0,45.9,0,68.9C201.4,168.7,201.4,170,199.8,170.6z"/>
	<path fill="#69706C" d="M321,94.7c24.9,0,49.8,0,74.6,0c0,25.3,0,50.6,0,75.8c-24.7,0-49.4,0-74.2,0c-1.3-0.5-1.4-1.6-1.4-2.8
		c0-23.1,0-46.2,0-69.3C320.1,97.1,320,95.8,321,94.7z"/>
	<path fill="#69706C" d="M297,170.6c-24.2,0-48.3,0-72.5,0c-1.3-0.5-1.4-1.6-1.4-2.8c0-23.1,0-46.2,0-69.3c0-1.3-0.1-2.6,0.9-3.7
		c24.5,0,49,0,73.4,0c1,1,1.1,2.3,1.1,3.6c0,23,0,45.9,0,68.9C298.6,168.7,298.6,170,297,170.6z"/>
</g>
<path fill="#69706C" d="M199.8,265.6c-66.6,0-133.1,0-199.7,0c0-25.3,0-50.6,0-75.8c66.7,0,133.4,0,200.2,0c0.5,0.6,1.2,1.1,1.2,2.1
	c0,23.7,0,47.4,0,71.1C201.5,264.2,201.2,265.3,199.8,265.6z"/>
<path fill="#69706C" d="M321,189.8c24.9,0,49.8,0,74.6,0c0,24.7,0,49.4,0,74.2c-0.2,0.9-0.8,1.5-1.7,1.7c-24.2,0-48.3,0-72.5,0
	c-1.4-0.3-1.5-1.3-1.4-2.5c0-23.5,0-47,0-70.5C320,191.6,320.1,190.6,321,189.8z"/>
<path fill="#69706C" d="M297,265.6c-24.2,0-48.3,0-72.5,0c-1.4-0.3-1.5-1.3-1.4-2.5c0-23.5,0-47,0-70.5c0-1.1,0.1-2.1,1-2.9
	c24.5,0,49,0,73.4,0c0.5,0.6,1.2,1.1,1.2,2.1c0,23.7,0,47.4,0,71.1C298.7,264.2,298.4,265.3,297,265.6z"/>
</svg>
